<?xml version="1.0" encoding="UTF-8"?>
<svg viewBox="0 0 818 1200.4" xmlns="http://www.w3.org/2000/svg">
 <defs>
  <linearGradient id="a" x1=".2" x2=".30357" y1=".083756" y2=".62436">
   <stop stop-color="#f3c300" offset="0"/>
   <stop stop-color="#fff8d2" offset="1"/>
  </linearGradient>
 </defs>
 <rect y="-3e-6" width="818" height="1198" fill="url(#a)"/>
 <g transform="matrix(1.177 0 0 1 1127.6 46)">
  <path d="m-957.64 533.01v197.41c23.817-4.6793 52.339-7.4062 83-7.4062 52.392 0 98.545 7.9253 125.62 20h25.188c30.735-18.978 94.048-32 167.19-32 41.874 0 80.52 4.2574 111.69 11.469 23.875-26.153 94.428-45.536 179.31-47.344v-142.12h-692z" fill="#00c4cc"/>
  <path d="m-849.56 613.77c-38.388 0-64.268 0.027954-84.334 0.064941v0.51929c106.07 0.46423 384.3 0.83362 445.86-0.58423h-361.52z" fill="#00c4cc"/>
  <path d="m-868.81 658.08c-23.455 0-42.916 0.01001-59.54 0.041992v1.6309c124.13 0.95618 374.53 1.4293 433.4-1.672h-373.86v-8.54e-4z" fill="#fff"/>
  <path d="m-684.65 572.22h-192.02c-210.61 0 139.47-3.9525 192.02 0z" fill="#fff" opacity=".646"/>
  <path d="m-469.11 612.99h-317.35c-348.08 0 230.5 2.2784 317.36 0z" fill="#fff" opacity=".646"/>
  <path d="m-489.41 596.53h-165.31c-181.32 0 120.07-3.9524 165.31 0z" fill="#fff" opacity=".646"/>
  <path d="m-691.54 596.88c-37.579 0-62.913 0.026001-82.557 0.061035v0.48462c103.84 0.43323 376.2 0.77808 436.46-0.54529h-353.91v-3.66e-4z" fill="#00c4cc"/>
  <path d="m-402.69 640.47c22.96 0 42.011-0.01001 58.285-0.039063v-1.5221c-121.51-0.89246-366.63-1.3341-424.26 1.5604h365.98v7.32e-4z" fill="#fff"/>
  <path d="m-530.11 558.1h-187.97c-206.17 0 136.53-3.689 187.97 0z" fill="#fff" opacity=".646"/>
  <path d="m-319.11 596.15h-310.67c-340.75 0 225.64 2.1266 310.66 0z" fill="#fff" opacity=".646"/>
  <path d="m-338.99 580.79h-161.83c-177.5 0 117.54-3.6888 161.83 0z" fill="#fff" opacity=".646"/>
 </g>
 <path d="m204 843c0 9.3889-46.115 17-103 17s-103-7.6111-103-17 46.115-17 103-17 103 7.6111 103 17z" fill="#382509" opacity=".3"/>
 <path d="m45 841l185 3-30 38-181 1 26-42z" fill="#ff7e00" opacity=".5"/>
 <g transform="matrix(.27017 -.075175 .075175 .27017 -762.46 1013.9)">
  <path d="m3279.6-556.83h28v838h-28v-838z" fill="#8f6b32"/>
  <path d="m3293.6-514.82c-164.28 0-302.77 36.549-345.38 86.442h690.75c-42.606-49.892-181.1-86.442-345.38-86.442z" fill="#eeeeec"/>
  <rect x="3279.6" y="-430.83" width="28" height="166" fill="#382509" opacity=".3"/>
 </g>
</svg>
